<svg width="408" height="406" viewBox="0 0 408 406" fill="none" xmlns="http://www.w3.org/2000/svg">
<path d="M322.758 205.236C315.496 198.357 308.439 191.777 301.496 185.078C296.721 180.471 296.072 176.565 299.197 172.957C302.076 169.635 310.143 168.692 313.892 171.303C315.114 172.154 316.269 173.129 317.343 174.164C340.576 196.572 363.825 218.964 386.958 241.475C389.031 243.492 390.556 246.183 391.943 248.771C394.033 252.675 393.302 256.328 389.564 258.812C386.267 261.002 383.031 260.418 380.056 257.697C366.558 245.35 352.994 233.076 339.482 220.744C333.954 215.699 328.499 210.573 322.758 205.236Z" fill="#59BBE7"/>
<path d="M23.942 179.053C22.4987 177.639 21.2913 176.49 20.1217 175.305C15.5454 170.666 14.9659 166.667 18.3472 163.189C22.2485 159.176 29.2314 158.642 33.215 162.287C38.6192 167.233 43.9134 172.302 49.1584 177.416C68.1169 195.904 87.0459 214.422 105.961 232.955C110.748 237.646 111.432 242.084 108.038 245.456C104.162 249.307 98.9845 249.113 94.3176 244.763C70.9258 222.962 47.5662 201.125 23.942 179.053Z" fill="#1B2D4F"/>
<path d="M270.397 173.396C288.881 153.766 307.036 134.311 325.458 115.113C327.794 112.678 331.392 111.231 334.654 109.967C338.479 108.484 341.99 109.573 344.026 113.381C345.95 116.981 344.724 120.092 341.972 122.822C334.295 130.437 326.365 137.821 319.058 145.777C304.545 161.577 290.382 177.699 276.076 193.69C275.077 194.805 274.104 195.944 273.095 197.05C268.298 202.314 263.927 203.402 260.365 200.23C255.419 195.826 255.245 188.991 260.021 183.991C263.354 180.502 266.771 177.094 270.397 173.396Z" fill="#2756AC"/>
<path d="M214.328 50.3272C222.814 41.5983 231.032 33.1015 239.307 24.6612C244.171 19.6989 248.199 19.0367 251.849 22.44C255.174 25.5409 255.1 34.3591 251.373 37.9899C243.143 46.0065 234.607 53.7096 226.408 61.7563C210.968 76.9097 195.591 92.1314 180.393 107.527C177.229 110.732 173.933 112.029 169.694 111.218C163.735 110.078 161.298 104.41 164.897 99.516C166.948 96.7277 169.622 94.3839 172.107 91.9316C186.084 78.1333 200.089 64.3629 214.328 50.3272Z" fill="#E3953A"/>
<path d="M212.018 267.78C213.717 264.986 214.97 261.33 217.275 260.459C221.381 258.908 225.798 260.206 229.094 263.648C238.655 273.635 248.011 283.827 257.798 293.587C271.006 306.759 284.625 319.519 297.854 332.671C300.076 334.881 301.472 338.065 302.792 341.005C304.503 344.818 303.568 348.318 299.947 350.562C295.972 353.025 292.68 351.341 289.747 348.3C281.653 339.908 273.626 331.447 265.377 323.208C249.116 306.966 232.688 290.891 216.433 274.642C214.623 272.833 213.491 270.346 212.018 267.78Z" fill="#2857AC"/>
<path d="M163.937 135.058C145.613 117.381 127.533 99.9611 109.464 82.5297C106.339 79.5155 103.713 76.2794 106.175 71.6078C108.68 66.853 113.065 67.3837 117.113 68.3874C119.373 68.9479 121.61 70.5259 123.328 72.1918C130.254 78.9079 136.927 85.884 143.779 92.6775C159.84 108.602 175.94 124.487 192.046 140.365C197.426 145.669 198.357 149.538 194.978 153.1C191.62 156.64 184.565 155.997 180.281 151.684C174.887 146.255 169.548 140.771 163.937 135.058Z" fill="#89BF60"/>
<path d="M311.563 221.557C315.686 217.484 319.193 212.474 325.73 215.148C328.576 216.311 332.471 217.976 333.24 220.293C334.019 222.642 332.335 226.857 330.343 228.909C316.201 243.489 301.717 257.737 287.309 272.058C282.466 276.872 277.585 281.651 272.612 286.33C268.837 289.883 263.506 290.218 259.305 287.406C255.479 284.845 254.833 279.87 258.212 276.107C262.437 271.4 266.931 266.931 271.365 262.414C284.666 248.864 297.995 235.341 311.563 221.557Z" fill="#1B2C4F"/>
<path d="M208.74 353.762C200.822 362.055 192.901 370.344 184.989 378.643C179.686 384.206 176.074 385.13 172.243 381.875C168.878 379.016 168.594 370.3 172.098 366.258C176.67 360.984 181.52 355.948 186.326 350.881C199.717 336.765 213.13 322.668 226.573 308.601C231.424 303.525 235.404 302.814 238.997 306.19C242.594 309.569 242.902 317.844 239.32 321.661C231.125 330.391 222.795 338.994 214.015 348.007C211.919 350.164 210.329 351.963 208.74 353.762Z" fill="#1B2C4F"/>
<path d="M126.289 189.676C123.454 186.798 120.717 184.27 121.663 179.981C123.074 173.588 132.775 170.65 137.834 175.394C144.633 181.77 151.154 188.446 157.702 195.083C169.166 206.703 180.709 218.252 191.87 230.157C194.432 232.89 196.418 236.793 197.089 240.448C197.539 242.898 195.851 246.498 193.95 248.434C191.469 250.96 187.991 250.033 185.372 247.683C182.025 244.682 178.781 241.561 175.58 238.403C159.218 222.261 142.884 206.091 126.289 189.676Z" fill="#2756AC"/>
<path d="M198.721 330.703C194.002 336.202 188.368 336.784 183.402 332.133C164.092 314.043 144.861 295.868 125.675 277.647C121.328 273.52 120.852 269.181 123.934 265.897C127.853 261.722 134.821 261.078 138.716 264.798C148.346 273.995 157.887 283.285 167.405 292.597C176.922 301.908 186.357 311.302 195.853 320.635C198.626 323.361 200.563 326.293 198.721 330.703Z" fill="#1C2D50"/>
<path d="M212.962 184.949C212.67 181.99 212.152 179.342 212.391 176.764C212.926 171.004 219.237 168.205 223.97 171.576C226.127 173.112 228.047 175.006 229.956 176.858C248.599 194.949 267.312 212.97 285.704 231.312C287.665 233.267 289.001 237.518 288.269 240.012C287.602 242.285 283.933 244.249 281.194 245.134C279.45 245.698 276.433 244.657 274.934 243.294C255.101 225.266 235.428 207.064 215.755 188.862C214.681 187.868 213.964 186.491 212.962 184.949Z" fill="#89BF60"/>
<path d="M218.915 159.923C207.104 172.618 195.576 185.092 183.942 197.466C182.272 199.242 180.218 200.754 178.113 202.002C174.64 204.062 171.25 203.454 168.718 200.36C165.999 197.037 166.455 193.533 169.224 190.388C175.497 183.265 181.807 176.176 188.143 169.11C200.815 154.978 213.439 140.803 226.244 126.793C230.546 122.086 235.464 122.081 238.626 126.202C241.469 129.908 241.021 136.244 237.576 139.957C231.46 146.547 225.303 153.1 218.915 159.923Z" fill="#47494A"/>
<path d="M188.139 283.16C185.522 285.986 183.267 288.679 180.75 291.098C177.906 293.832 174.444 294.348 171.167 292.106C167.891 289.864 167.012 286.52 168.753 282.858C169.666 280.939 170.774 279.007 172.201 277.454C189.435 258.688 206.744 239.99 224.038 221.279C225.847 219.322 227.373 216.773 229.608 215.635C231.88 214.479 235.349 213.699 237.406 214.658C239.422 215.598 241.176 218.812 241.528 221.247C242.219 226.017 240.292 230.038 236.668 233.667C220.427 249.933 204.455 266.468 188.139 283.16Z" fill="#2756AC"/>
<path d="M115.025 244.026C122.241 236.849 129.072 229.777 136.251 223.078C138.586 220.898 141.683 219.306 144.701 218.15C147.897 216.926 151.611 217.689 152.831 220.984C153.776 223.537 153.054 226.87 152.494 229.743C152.254 230.979 150.571 231.95 149.509 233.006C130.742 251.673 111.977 270.342 93.1923 288.991C88.4083 293.741 83.997 294.56 80.6079 291.443C77.1176 288.232 77.5439 281.42 81.8405 277.04C89.5356 269.195 97.4054 261.522 105.203 253.777C108.393 250.609 111.584 247.443 115.025 244.026Z" fill="#47494A"/>
<path d="M144.796 126.904C152.863 129.96 154.288 138.89 147.864 145.643C138.571 155.414 129.045 164.964 119.571 174.562C111.152 183.091 102.705 191.592 94.1814 200.015C92.6752 201.504 90.872 202.85 88.9623 203.738C85.3701 205.408 81.9408 204.658 79.6574 201.39C77.3938 198.15 77.8154 194.819 80.5674 191.844C99.5535 171.317 118.477 150.733 137.592 130.327C139.225 128.584 142.099 128.003 144.796 126.904Z" fill="#E39439"/>
<path d="M263.766 146.236C247.263 130.737 230.983 115.518 214.798 100.199C212.787 98.296 210.774 96.0828 209.676 93.6079C208.248 90.3892 208.77 87.0218 211.966 84.7028C215.251 82.3198 218.515 82.5532 221.562 85.1133C223.979 87.144 226.28 89.3132 228.607 91.4486C246.252 107.638 263.922 123.799 281.481 140.08C283.341 141.804 285.649 144.199 285.744 146.37C285.853 148.869 284.227 153.145 282.475 153.661C279.046 154.67 274.696 154.426 271.315 153.147C268.452 152.063 266.418 148.79 263.766 146.236Z" fill="#5ABCE7"/>
<path d="M210.775 360.033C210.8 358.632 210.825 357.231 211.212 355.264C212.715 353.444 213.856 352.19 214.997 350.937C215.413 350.87 215.83 350.802 216.847 350.754C217.965 350.515 218.483 350.257 219 349.998C220.723 349.882 222.445 349.766 224.747 349.99C225.892 350.54 226.459 350.749 227.025 350.958C235.967 361.246 244.782 371.613 255.938 379.735C261.057 383.461 260.934 389.485 256.44 394.028C253.089 397.416 248.741 396.738 244.264 392.506C233.651 382.474 222.928 372.56 212.044 362.031C211.484 360.988 211.13 360.51 210.775 360.033Z" fill="#1C2E51"/>
<path d="M174.574 37.415C180.669 43.0978 186.575 48.4684 192.325 54.0026C196.986 58.4898 196.952 63.2458 192.495 67.9878C189.391 71.2906 184.888 71.3729 180.623 67.2373C170.841 57.7517 161.293 48.0177 151.867 38.176C148.441 34.5984 148.724 28.8739 151.815 26.0067C155.219 22.8485 159.45 23.3473 163.707 27.3471C167.22 30.6479 170.779 33.8999 174.574 37.415Z" fill="#5BBCE7"/>
<path d="M283.258 68.1511C288.186 64.3054 291.924 64.1427 294.973 67.4013C298.833 71.5275 299.012 76.8397 295.195 80.7756C286.631 89.6055 278.055 98.4276 269.283 107.047C267.628 108.674 265.147 109.82 262.854 110.354C259.187 111.208 255.825 110.093 253.946 106.514C252.179 103.147 253.081 99.9771 255.56 97.3407C264.663 87.6575 273.84 78.0429 283.258 68.1511Z" fill="#484A4B"/>
<path d="M342.091 305.181C339.206 304.465 336.047 304.357 334.252 302.737C324.415 293.86 314.941 284.582 305.284 275.504C300.583 271.085 299.764 266.592 303.205 263.006C307.324 258.714 314.144 258.673 318.301 262.767C327.267 271.598 336.236 280.428 345.335 289.121C350.588 294.141 349.545 300.47 342.091 305.181Z" fill="#89BF60"/>
<path d="M359.221 174.24C364.631 168.585 369.793 163.184 374.937 157.766C379.246 153.227 383.59 152.32 387.071 155.265C390.327 158.02 390.831 163.814 387.162 167.94C378.007 178.235 368.546 188.27 358.941 198.15C355.629 201.557 348.948 200.433 345.549 196.569C342.496 193.1 343.008 189.189 347.186 185.253C351.058 181.606 355.035 178.072 359.221 174.24Z" fill="#1D2E51"/>
<path d="M107.666 155.682C101.709 160.156 98.9817 160.01 93.8403 155.513C84.8335 147.636 75.715 139.886 66.7581 131.953C64.8193 130.236 63.0838 128.139 61.7534 125.919C59.5687 122.272 60.31 118.723 63.6641 116.177C67.0663 113.594 70.4466 114.271 73.6075 117.057C80.8373 123.43 88.1071 129.759 95.4274 136.028C98.9611 139.054 102.719 141.819 106.241 144.857C109.69 147.833 110.775 151.349 107.666 155.682Z" fill="#2857AC"/>
<path d="M60.1759 234.126C55.4859 238.377 51.1276 242.461 46.6198 246.372C42.9578 249.549 37.839 249.716 34.7942 247.004C31.6407 244.195 30.8774 239.76 33.8412 236.843C39.5 231.273 45.3264 225.781 51.6783 221.057C53.8657 219.43 58.0811 219.33 60.8839 220.165C62.6688 220.696 64.7431 224.338 64.5542 226.389C64.3145 228.992 61.9126 231.395 60.1759 234.126Z" fill="#E3963D"/>
<path d="M128.406 336.557C122.863 329.325 123.265 325.931 129.598 320.228C133.027 317.14 136.246 313.798 139.361 310.388C142.851 306.568 147.313 305.88 150.725 308.927C154.316 312.135 154.556 317.163 151.297 320.927C147.394 325.435 143.477 329.93 139.595 334.456C136.535 338.024 133.059 339.489 128.406 336.557Z" fill="#2A59AD"/>
</svg>
