<svg viewBox="0 0 34 34" xmlns="http://www.w3.org/2000/svg" xml:space="preserve" style="fill-rule:evenodd;clip-rule:evenodd;stroke-linejoin:round;stroke-miterlimit:1.41421">
  <path d="M7.988.343s-1.84 6.196-1.71 8.032c.092 1.292 2.493 2.982 2.493 2.982s-1.308 1.552-1.813 2.423c-.521.898-1.313 2.963-1.313 2.963s-3.938-4.622-3.614-6.89C2.422 7.119 7.988.343 7.988.343Zm17.869 0s1.84 6.196 1.71 8.032c-.092 1.292-2.493 2.982-2.493 2.982s1.307 1.552 1.813 2.423c.521.898 1.313 2.963 1.313 2.963s3.938-4.622 3.614-6.89c-.391-2.734-5.957-9.51-5.957-9.51Z" style="fill:#000"/>
  <path d="M16.984 7.6c-5.216 0-9.819 3.695-11.344 9.106l11.344 3.763V7.6Z" style="fill:#000"/>
  <path d="M16.974 7.58c5.215 0 9.819 3.696 11.343 9.107l-11.343 3.762V7.58Zm-.02 9.12H5.618v7.923s4.577 1.795 6.467 3.245c1.569 1.204 4.588 5.459 4.588 5.459l.281-.002V16.7Z" style="fill:#000"/>
  <path d="M16.96 16.59h11.337v7.923s-4.578 1.795-6.467 3.245c-1.612 1.238-4.601 5.567-4.601 5.567h-.275l.006-16.735Z" style="fill:#000"/>
  <circle cx="16.963" cy="16.32" r="1.427" style="fill:#fff"/>
</svg>
