<svg width="509" height="348" viewBox="0 0 509 348" fill="none" xmlns="http://www.w3.org/2000/svg">
<g filter="url(#filter0_d_1_13)">
<path fill-rule="evenodd" clip-rule="evenodd" d="M111.734 284.592C107.042 286.591 102.192 288.657 97.0266 290.863C95.3428 291.526 93.6876 292.186 92.0508 292.838C87.8938 294.495 83.855 296.105 79.7672 297.602C70.9159 300.843 61.9816 303.46 52.1712 303.209C36.2296 302.801 24.4288 288.399 26.8282 276.225C28.4298 268.098 30.9463 260.337 34.7658 252.943C40.887 241.094 47.7432 229.601 55.451 218.542C55.6109 218.313 55.7727 218.083 55.9348 217.853C58.1046 214.774 60.3305 211.616 58.9204 207.598C57.4876 203.516 54.4753 200.788 49.8195 200.104C44.7797 199.363 41.3406 201.96 38.6431 205.478C28.1842 219.117 19.023 233.454 12.2027 248.933C7.13279 260.439 3.06189 272.169 5.17743 284.961C7.85546 301.153 17.36 312.711 33.2394 319.668C45.6586 325.109 58.7207 324.932 71.8896 321.872C90.7613 317.487 108.291 310.024 125.576 302.073C129.68 300.184 132.465 299.968 136.121 302.937C140.458 306.459 145.463 309.342 150.402 312.174C190.775 335.324 234.637 343.567 281.638 337.293C304.113 334.293 325.314 327.557 345.354 317.57C385.62 297.503 414.12 268.168 430.067 228.622C438.709 207.19 442.163 185.081 440.886 162.325C440.686 158.758 442.033 156.292 444.703 153.784C450.815 148.042 456.862 142.196 462.392 135.985C477.806 118.674 491.235 100.2 500.174 79.2345C504.072 70.0901 505.226 60.5121 503.102 51.0327C499.318 34.1391 487.885 23.0625 469.948 17.9718C458.858 14.8244 447.523 14.4836 435.87 15.2791C411.75 16.9257 388.422 21.8212 365.368 28.0965C361.345 29.1916 358.245 28.9226 354.592 26.9166C310.242 2.56282 262.749 -6.25111 212.015 4.54916C168.642 13.7825 132.846 34.6734 105.903 67.3734C69.227 111.885 59.9467 161.721 73.3543 215.615C74.5604 220.464 74.912 220.506 79.7392 218.411C81.8503 217.495 83.9611 216.579 86.0719 215.662C96.7231 211.038 107.374 206.413 118.055 201.846C123.664 199.448 128.489 200.419 132.159 204.445C135.768 208.404 135.829 213.589 132.383 218.058C130.358 220.683 127.566 222.372 124.467 223.693C121.642 224.899 118.818 226.108 115.994 227.317C106.716 231.288 97.4376 235.26 88.1002 239.111C84.1498 240.74 83.7647 242.841 85.6065 246.112C92.176 257.779 99.4657 269.015 108.395 279.315C108.71 279.679 109.076 280.016 109.447 280.358C110.59 281.411 111.786 282.514 111.734 284.592ZM456.894 36.318C461.198 36.9685 465.2 38.1951 469.072 39.9313C476.854 44.3702 481.264 50.2113 482.302 57.9874C483.179 64.5579 480.386 70.4496 477.526 76.1782C465.218 100.837 447.796 122.148 426.311 140.647C403.472 160.311 377.06 175.104 348.845 187.253C298.512 208.924 248.128 230.495 197.745 252.067C190.827 255.028 183.91 257.99 176.993 260.952C172.134 263.032 167.23 265.08 162.183 266.718C157.045 268.387 152.113 266.772 149.16 263.055C146.086 259.184 146.167 254.203 149.401 250.046C151.606 247.21 154.631 245.358 158.032 243.906C185.162 232.325 212.287 220.734 239.397 209.115C267.481 197.079 295.554 185.02 323.613 172.934C327.394 171.306 330.851 169.24 333.186 165.891C336.425 161.247 336.295 156.59 332.716 152.185C329.608 148.36 323.815 146.313 318.786 148.201C308.289 152.143 297.897 156.357 287.654 160.83C275.914 165.957 264.065 170.866 252.215 175.775C235.665 182.631 219.115 189.488 202.865 196.937C200.818 197.876 198.616 198.566 196.427 199.2C189.779 201.123 184.484 199.419 181.823 194.597C179.178 189.803 180.829 183.113 185.747 179.832C188.085 178.272 190.715 177.028 193.343 175.896C229.599 160.274 265.876 144.693 302.153 129.113C303.408 128.574 304.679 128.066 305.95 127.557C307.493 126.94 309.037 126.323 310.551 125.651C319.245 121.793 322.759 114.604 319.378 107.729C316.067 100.997 308.304 98.9976 299.256 102.747C285.408 108.485 271.609 114.322 257.813 120.162C245.531 125.362 233.252 130.569 220.974 135.777C202.325 143.685 183.676 151.594 165.014 159.477C164.917 159.518 164.82 159.559 164.723 159.6C160.949 161.198 157.151 162.805 152.886 160.236C144.326 155.081 144.426 144.405 153.622 139.789C159.77 136.703 166.149 134.002 172.526 131.302C174.933 130.283 177.339 129.264 179.733 128.225C185.836 125.575 191.938 122.924 198.041 120.272C221.898 109.908 245.754 99.5433 269.642 89.2402C276.249 86.3906 282.827 83.4823 289.404 80.574C309.361 71.7495 329.318 62.9252 350.099 55.742C374.83 47.1929 400.089 40.6156 426.278 37.1433C436.46 35.7933 446.601 34.7626 456.894 36.318ZM388.735 63.1805C373.815 65.4998 364.209 74.1331 360.571 88.3094C357.695 111.471 372.327 127.812 395.601 127.737C409.604 127.691 420.089 121.695 426.582 110.515C433.333 98.8927 432.684 87.1405 424.686 76.1146C416.064 64.2276 403.028 60.9588 388.735 63.1805Z" fill="black"/>
</g>
<defs>
<filter id="filter0_d_1_13" x="0.605652" y="0" width="507.548" height="347.323" filterUnits="userSpaceOnUse" color-interpolation-filters="sRGB">
<feFlood flood-opacity="0" result="BackgroundImageFix"/>
<feColorMatrix in="SourceAlpha" type="matrix" values="0 0 0 0 0 0 0 0 0 0 0 0 0 0 0 0 0 0 127 0" result="hardAlpha"/>
<feOffset dy="4"/>
<feGaussianBlur stdDeviation="2"/>
<feComposite in2="hardAlpha" operator="out"/>
<feColorMatrix type="matrix" values="0 0 0 0 0 0 0 0 0 0 0 0 0 0 0 0 0 0 0.25 0"/>
<feBlend mode="normal" in2="BackgroundImageFix" result="effect1_dropShadow_1_13"/>
<feBlend mode="normal" in="SourceGraphic" in2="effect1_dropShadow_1_13" result="shape"/>
</filter>
</defs>
</svg>
